<svg xmlns="http://www.w3.org/2000/svg" width="135" height="60"><g style="line-height:125%" font-size="15.41" font-family="sans-serif" letter-spacing="0" word-spacing="0"><path fill="#4ac1cc" d="M2.55 55.643v4.2H0V48.886h4.214q1.904 0 3.017.88 1.12.88 1.12 2.408 0 .85-.45 1.46-.44.61-1.31.993 1.01.286 1.45.955.45.662.45 1.656v.69q0 .43.128.98.13.548.446.78v.152H6.42q-.302-.233-.4-.828-.09-.594-.09-1.098v-.662q0-.783-.414-1.197-.414-.414-1.212-.414H2.55zm0-1.956h1.68q.766 0 1.173-.346.406-.35.406-1 0-.67-.43-1.07-.42-.41-1.18-.41H2.55v2.84zm13.44 3.25q0-.58-.384-.895-.384-.316-1.377-.67-2.08-.654-3.08-1.4-1-.75-1-2.166 0-1.377 1.19-2.227 1.19-.85 3.03-.85 1.82 0 2.98.94 1.16.93 1.13 2.4l-.02.04h-2.47q0-.66-.45-1.06-.45-.42-1.23-.42-.77 0-1.21.34-.435.33-.435.83 0 .48.435.772.444.286 1.655.722 1.866.555 2.806 1.37.95.81.95 2.233 0 1.443-1.125 2.263-1.123.817-2.98.817-1.867 0-3.23-.934-1.36-.94-1.324-2.7l.018-.047h2.475q0 .95.515 1.36.51.406 1.55.406.79 0 1.174-.314.39-.315.39-.826z" style="-inkscape-font-specification:'Roboto Heavy'" font-weight="900" font-family="Roboto"/><path fill="#fff" d="M32.078 56.208l.015.045q.03 1.663-1.084 2.71Q29.9 60 28 60q-1.92 0-3.123-1.287-1.196-1.294-1.196-3.303v-2.084q0-2.002 1.18-3.296 1.19-1.3 3.09-1.3 1.94 0 3.06 1.022 1.12 1.016 1.09 2.74l-.01.044h-1.77q0-1.106-.6-1.723-.59-.617-1.76-.617-1.12 0-1.78.888-.652.888-.652 2.227v2.1q0 1.36.67 2.25.678.89 1.82.89 1.138 0 1.725-.61t.58-1.72h1.76zm6.66 2.445q-.385.647-.97 1-.59.347-1.356.347-1.31 0-2.047-.835-.737-.835-.737-2.596V51.7h1.82v4.884q0 1.068.347 1.497.346.43 1.046.43.67 0 1.11-.23.45-.24.71-.69V51.7h1.83v8.142h-1.6l-.15-1.19zm8.232-1.023q0-.422-.362-.7-.36-.278-1.347-.49-1.46-.308-2.21-.872-.74-.572-.74-1.55 0-1.023.87-1.746.87-.722 2.28-.722 1.49 0 2.37.738.88.73.84 1.813l-.01.05H46.9q0-.5-.385-.86-.38-.36-1.05-.36-.664 0-1.01.3t-.346.73q0 .43.32.69.33.25 1.33.448 1.53.314 2.27.893.74.57.74 1.565 0 1.1-.91 1.785-.903.684-2.385.684-1.585 0-2.503-.812-.92-.81-.875-1.864l.02-.045h1.7q.03.705.51 1.03.484.323 1.176.323.704 0 1.09-.27.382-.27.382-.73zm5.703-7.908v1.98h1.46v1.353h-1.46v4.5q0 .504.218.722.22.21.58.21.15 0 .3-.022.15-.03.27-.075l.2 1.34q-.23.127-.55.195-.32.075-.67.075-1.01 0-1.58-.587-.57-.594-.57-1.858v-4.5h-1.25V51.7h1.25v-1.978h1.82zm2.747 5.974q0-1.813.992-2.98 1.01-1.166 2.732-1.166 1.753 0 2.746 1.166 1 1.16 1 2.98v.158q0 1.836-1 2.995Q60.897 60 59.16 60q-1.747 0-2.748-1.16-.993-1.158-.993-2.986v-.158zm1.828.158q0 1.19.466 1.94.46.746 1.445.746.95 0 1.43-.745.48-.752.48-1.94v-.16q0-1.165-.48-1.918-.48-.76-1.45-.76-.96 0-1.43.76t-.47 1.92v.157zm8.91-4.154l.097 1.062q.398-.58 1-.896.602-.316 1.393-.316.797 0 1.37.36.57.362.857 1.085.376-.677.993-1.06.617-.385 1.445-.385 1.226 0 1.934.843.714.835.714 2.543v4.906h-1.82V54.93q0-1.04-.36-1.46-.35-.423-1.07-.423-.58 0-.99.317-.4.316-.58.85 0 .113.01.195t.01.15v5.27h-1.83v-4.91q0-1.01-.37-1.44-.36-.45-1.07-.45-.55 0-.94.22-.384.21-.61.6v5.97H64.5V51.7h1.67zM81.37 60q-1.73 0-2.762-1.13-1.023-1.135-1.023-2.91v-.302q0-1.775 1.016-2.942 1.03-1.173 2.56-1.166 1.65 0 2.53 1 .88.994.88 2.672v1.076h-5.08l-.01.038q.05.97.57 1.587.53.617 1.457.617.737 0 1.264-.18t1.017-.52l.584 1.197q-.455.406-1.215.685-.76.278-1.76.278zm-.21-6.983q-.678 0-1.115.542-.436.53-.54 1.36l.014.04h3.23v-.19q0-.78-.4-1.27-.39-.49-1.19-.49zm8.93.33l-.782-.03q-.534 0-.895.227-.354.226-.55.64v5.658h-1.828v-8.14h1.67l.12 1.18q.31-.625.79-.978.49-.354 1.122-.354.164 0 .307.03.143.023.263.06l-.217 1.708zm7.188 2.343v4.152h-1.83V48.887h4.282q1.813 0 2.837.94 1.03.933 1.03 2.46 0 1.543-1.03 2.476-1.026.926-2.84.926h-2.45zm0-1.47h2.452q1.016 0 1.527-.54.51-.542.51-1.377 0-.836-.51-1.392-.513-.55-1.53-.55h-2.45v3.87zm7.47 1.476q0-1.813.994-2.98 1.008-1.166 2.732-1.166 1.753 0 2.746 1.166 1 1.16 1 2.98v.158q0 1.836-1 2.995-.993 1.15-2.73 1.15-1.747 0-2.748-1.16-.993-1.16-.993-2.99v-.16zm1.83.158q0 1.19.466 1.94.46.746 1.445.746.95 0 1.43-.745.48-.752.48-1.94v-.16q0-1.165-.48-1.918-.48-.76-1.45-.76-.96 0-1.43.76t-.47 1.92v.157zm11.294-2.506l-.783-.03q-.54 0-.9.226t-.55.64v5.658h-1.83v-8.14h1.67l.12 1.18q.31-.625.79-.978.49-.354 1.12-.354.16 0 .31.03.14.023.26.06l-.22 1.708zm3.694-3.626v1.98h1.46v1.353h-1.46v4.5q0 .504.22.722.217.21.578.21.15 0 .294-.022.143-.03.27-.075l.196 1.34q-.233.127-.557.195-.325.075-.67.075-1.01 0-1.58-.587-.573-.594-.573-1.858v-4.5h-1.242V51.7h1.242v-1.978h1.82zm7.984 10.12q-.098-.31-.165-.602-.06-.293-.083-.587-.376.572-.993.963-.61.384-1.37.384-1.27 0-1.96-.655-.68-.654-.68-1.798 0-1.18.93-1.836.93-.66 2.62-.66h1.42v-.71q0-.64-.38-1t-1.08-.36q-.625 0-.994.3-.37.3-.37.78h-1.76l-.01-.04q-.05-.96.86-1.71.917-.74 2.384-.74 1.42 0 2.295.727.87.72.87 2.075v3.62q0 .504.067.97.066.46.22.903h-1.854zm-2.242-1.31q.692 0 1.24-.345.558-.346.74-.79v-1.204h-1.453q-.798 0-1.25.398-.45.4-.45.93 0 .47.3.75.308.27.873.27zm7.69 1.31h-1.828V48.104H135v11.738z"/></g><path fill="#4ac1cc" d="M43.496 45.068c-.517 0-.976-.45-.976-.96v-8.624c1.435-.112 2.754-.675 3.787-1.688l4.932-4.85V44.11c0 .507-.46.958-.98.958h-6.77zm18.927 0c.517 0 .976-.45.976-.96V35.09c-1.55-.054-2.99-.62-4.08-1.69l-4.65-4.564V44.11c0 .507.46.958.97.958h6.77zm12.104 0c.51 0 .97-.45.97-.96V25.735l-7.8 7.666c-.288.29-.628.57-.978.79v9.92c0 .51.46.96.96.96h6.83zm12.1 0c.508 0 .968-.45.968-.96V15.08c-.23-.166-.4-.335-.52-.448l-.12-.113-8.088 7.89v21.7c0 .51.45.96.97.96h6.77zM54.91 15.982c-.515-.507-1.204-.79-1.95-.79-.745 0-1.434.283-1.95.79l-11.358 11.22c-1.09 1.068-1.09 2.76 0 3.775l.517.506c.51.564 1.2.847 1.94.847s1.43-.283 1.95-.79l8.95-8.794 8.6 8.452c.51.5 1.2.79 1.95.79.74 0 1.43-.29 1.95-.79L87.03 10.06l.17.17 1.607 1.578.69.67c.284.28.686.668 1.317.668.23 0 .517-.06.804-.23.173-.11.345-.23.46-.34.46-.46.574-1.078.574-1.527.11-2.04.17-4.01.28-6.04l.17-3.05c.05-.67-.12-1.12-.46-1.46-.34-.34-.8-.51-1.43-.51h-.18c-3.14.18-6.3.3-9.45.46-.41 0-.98.05-1.438.51-.12.11-.23.28-.35.5-.46 1.01.17 1.63.514 1.97l.803.79 1.66 1.632-19.25 18.56-8.6-8.454z"/></svg>