<svg viewBox="0 0 500 500" xmlns="http://www.w3.org/2000/svg"><circle cx="250" cy="250" r="250" fill="#F4F1F0"/><path d="M383.377 113.89h-266.75c-4.325 0-7.852 3.525-7.852 7.85V300.95c0 4.844 3.526 8.81 7.85 8.81h60.396c2.103-.83 4.25-1.665 6.444-2.517 4.248-1.65 8.637-3.348 13.015-5.182 9.92-4.133 15.947-6.862 19.433-8.527l.1-10.362c-1.54-1.914-3.33-4.687-5.01-8.44H124.55V133.414h250.266V274.73h-85.818c-1.676 3.754-3.472 6.526-5.002 8.44l.093 10.363c3.477 1.66 9.498 4.395 19.427 8.528 4.378 1.83 8.772 3.533 13.01 5.177 2.203.857 4.34 1.692 6.456 2.522h60.396c4.317 0 7.844-3.967 7.844-8.812V121.74c-.002-4.325-3.53-7.85-7.847-7.85z" fill="#675F58"/><path d="M346.463 333.82c-6.033-9.406-26.286-15.25-46.344-23.61-.37-.15-.712-.292-1.075-.45-19.12-7.996-23.73-10.802-23.73-10.802l-.18-19.238s1.818-1.416 3.945-4.99c2.202-3.695 4.71-9.68 5.902-18.876 4.688 1.362 9.625-7.006 9.885-11.423.26-4.24-.65-16.03-6.38-14.845 1.172-8.876 2.02-16.85 1.61-21.07-1.49-15.456-16.703-31.748-40.098-31.748-23.397 0-38.61 16.292-40.103 31.75-.41 4.22.442 12.192 1.614 21.068-5.73-1.186-6.643 10.604-6.382 14.846.266 4.418 5.194 12.786 9.9 11.424 1.184 9.196 3.695 15.18 5.893 18.875 2.128 3.574 3.948 4.99 3.948 4.99l-.185 19.238s-4.617 2.806-23.733 10.802c-.37.158-.705.3-1.08.45-20.048 8.36-40.304 14.204-46.332 23.61-5.403 8.422-3.78 37.133-3.78 37.133H350.237s1.628-28.71-3.775-37.132z" fill="#FF931E"/><g fill="#675F58"><path d="M145.11 165.54l11.243 11.24-11.244 11.243 4.828 4.83 16.075-16.074-16.075-16.07M174.84 169.954h20.486v6.825H174.84z"/></g><path d="M368.495 387.04H131.098s-7.465-43.713 0-50.89c37.296-35.868 195.432-32.613 237.397 0 8.393 6.526 0 50.89 0 50.89z" fill="#675F58"/></svg>