<svg viewBox="0 0 500 500" xmlns="http://www.w3.org/2000/svg"><circle cx="250" cy="250" r="250" fill="#F4F1F0"/><path fill="#FF931E" d="M247.417 226.118l6.69-4.324 7.362 3.07-2.052-7.715 5.192-6.055-7.964-.434-4.15-6.797-2.876 7.438-7.753 1.846 6.18 5.023M299.127 256.81l-7.683 2.126-6.11-5.106-.346 7.96-6.755 4.232 7.47 2.788 1.933 7.736 4.964-6.24 7.948.55-4.405-6.647M329.872 219.048l-1.15-15.234-11.394 10.178-14.85-3.613 6.17 13.985-8.03 13.01 15.202-1.552 9.89 11.654 3.234-14.94 14.14-5.796"/><path fill="#675F58" d="M177.745 296.23l7.71 11.257 82.248-56.39-7.715-11.248M148.638 316.194l7.715 11.242 25.353-17.37-7.704-11.255"/><path d="M362.776 140.077H137.23c-14.416.02-26.09 11.708-26.118 26.117v167.61c.027 14.41 11.702 26.09 26.117 26.118h225.547c14.41-.027 26.097-11.708 26.112-26.117v-167.61c-.017-14.41-11.704-26.096-26.114-26.118zm-2.772 16.732c3.283 0 5.94 2.658 5.94 5.94 0 3.27-2.657 5.93-5.94 5.93-3.276 0-5.93-2.66-5.93-5.93 0-3.283 2.653-5.94 5.93-5.94zm-46.642.357h29.188c3.087 0 5.583 2.5 5.583 5.583 0 3.076-2.496 5.582-5.583 5.582h-29.188c-3.087 0-5.582-2.506-5.582-5.582 0-3.082 2.495-5.583 5.582-5.583zm61.29 176.64c-.01 6.487-5.392 11.858-11.876 11.87H137.23c-6.478-.012-11.855-5.383-11.87-11.87v-150.87h249.293v150.87z" fill="#675F58"/></svg>