<?xml version="1.0" encoding="UTF-8" standalone="no"?>
<!-- Created with Inkscape (http://www.inkscape.org/) -->

<svg
   xmlns:dc="http://purl.org/dc/elements/1.1/"
   xmlns:cc="http://creativecommons.org/ns#"
   xmlns:rdf="http://www.w3.org/1999/02/22-rdf-syntax-ns#"
   xmlns:svg="http://www.w3.org/2000/svg"
   xmlns="http://www.w3.org/2000/svg"
   xmlns:sodipodi="http://sodipodi.sourceforge.net/DTD/sodipodi-0.dtd"
   xmlns:inkscape="http://www.inkscape.org/namespaces/inkscape"
   width="50"
   height="50"
   viewBox="0 0 50.000001 50.000001"
   id="svg4135"
   version="1.1"
   inkscape:version="0.91 r13725"
   sodipodi:docname="google+.svg">
  <defs
     id="defs4137" />
  <sodipodi:namedview
     id="base"
     pagecolor="#ffffff"
     bordercolor="#666666"
     borderopacity="1.0"
     inkscape:pageopacity="0.0"
     inkscape:pageshadow="2"
     inkscape:zoom="3.959798"
     inkscape:cx="13.635322"
     inkscape:cy="40.926398"
     inkscape:document-units="px"
     inkscape:current-layer="layer1"
     showgrid="false"
     units="px"
     inkscape:window-width="1366"
     inkscape:window-height="706"
     inkscape:window-x="-8"
     inkscape:window-y="-8"
     inkscape:window-maximized="1" />
  <metadata
     id="metadata4140">
    <rdf:RDF>
      <cc:Work
         rdf:about="">
        <dc:format>image/svg+xml</dc:format>
        <dc:type
           rdf:resource="http://purl.org/dc/dcmitype/StillImage" />
        <dc:title></dc:title>
      </cc:Work>
    </rdf:RDF>
  </metadata>
  <g
     inkscape:label="Layer 1"
     inkscape:groupmode="layer"
     id="layer1"
     transform="translate(0,-1002.3622)">
    <rect
       style="opacity:1;fill:#4ac1cc;fill-opacity:1;stroke:none;stroke-width:3;stroke-linecap:butt;stroke-linejoin:round;stroke-miterlimit:4;stroke-dasharray:none;stroke-dashoffset:0;stroke-opacity:1"
       id="rect4683"
       width="50"
       height="50"
       x="0"
       y="1002.3622"
       ry="8" />
    <g
       id="g4789"
       transform="translate(462.52754,550.61394)">
      <g
         id="g4749" />
      <g
         id="g4753" />
      <g
         id="g4755" />
      <g
         id="g4757" />
      <g
         id="g4759" />
      <g
         id="g4761" />
      <g
         id="g4763" />
      <g
         id="g4765" />
      <g
         id="g4767" />
      <g
         id="g4769" />
      <g
         id="g4771" />
      <g
         id="g4773" />
      <g
         id="g4775" />
      <g
         id="g4777" />
      <g
         id="g4779" />
      <g
         id="g4781" />
    </g>
    <g
       id="g4849"
       transform="translate(-711.3583,1268.1561)">
      <g
         id="g4809" />
      <g
         id="g4813" />
      <g
         id="g4815" />
      <g
         id="g4817" />
      <g
         id="g4819" />
      <g
         id="g4821" />
      <g
         id="g4823" />
      <g
         id="g4825" />
      <g
         id="g4827" />
      <g
         id="g4829" />
      <g
         id="g4831" />
      <g
         id="g4833" />
      <g
         id="g4835" />
      <g
         id="g4837" />
      <g
         id="g4839" />
      <g
         id="g4841" />
    </g>
    <g
       id="g4908"
       transform="translate(-761.6123,429.33072)">
      <g
         id="g4869" />
      <g
         id="g4872" />
      <g
         id="g4874" />
      <g
         id="g4876" />
      <g
         id="g4878" />
      <g
         id="g4880" />
      <g
         id="g4882" />
      <g
         id="g4884" />
      <g
         id="g4886" />
      <g
         id="g4888" />
      <g
         id="g4890" />
      <g
         id="g4892" />
      <g
         id="g4894" />
      <g
         id="g4896" />
      <g
         id="g4898" />
      <g
         id="g4900" />
    </g>
    <path
       id="path4811"
       d="m 11.445066,1019.592 c 0,2.7161 0.907068,4.6768 2.695743,5.829 1.463893,0.9435 3.164553,1.0842 4.047617,1.0842 0.214583,0 0.386249,-0.011 0.506634,-0.015 0,0 -0.280412,1.8244 1.072551,3.6302 l -0.06111,0 c -2.34441,0 -9.9904742,0.4904 -9.9904742,6.7761 0,6.3957 7.0226832,6.7204 8.4312912,6.7204 0.110205,0 0.174577,0 0.174577,0 0.01564,0 0.116384,0 0.287686,0 0.904158,0 3.241295,-0.1135 5.411492,-1.1687 2.815036,-1.367 4.24365,-3.7434 4.24365,-7.0647 0,-3.2097 -2.175653,-5.1198 -3.764294,-6.5161 -0.969623,-0.8503 -1.807225,-1.5851 -1.807225,-2.2993 0,-0.7278 0.611743,-1.2747 1.385334,-1.9677 1.252946,-1.1204 2.433516,-2.7153 2.433516,-5.73 0,-2.6503 -0.343697,-4.4291 -2.460794,-5.5578 0.220766,-0.1131 1.000903,-0.1952 1.387151,-0.2487 1.147838,-0.1567 2.826312,-0.3345 2.826312,-1.2714 l 0,-0.1812 -8.362915,0 c -0.08402,0 -8.456751,0.3124 -8.456751,7.9806 z m 13.49945,16.3898 c 0.159664,2.5579 -2.027991,4.4452 -5.312565,4.6841 -3.336583,0.2437 -6.083609,-1.2585 -6.243272,-3.8127 -0.07746,-1.2271 0.462262,-2.431 1.51881,-3.3883 1.071824,-0.9706 2.54299,-1.5689 4.143634,-1.6871 0.189123,-0.013 0.376429,-0.02 0.563371,-0.02 3.087448,0 5.178723,1.8146 5.330022,4.2236 z m -2.183655,-18.1399 c 0.820507,2.8856 -0.418254,5.9024 -2.392418,6.459 -0.226585,0.064 -0.461899,0.096 -0.699031,0.096 -1.80868,0 -3.600629,-1.8297 -4.26438,-4.3498 -0.370975,-1.4162 -0.341152,-2.6535 0.08438,-3.8436 0.418254,-1.1706 1.169294,-1.9613 2.11455,-2.2272 0.227314,-0.064 0.46299,-0.097 0.699759,-0.097 2.184018,-4e-4 3.587899,0.9052 4.457142,3.9625 z m 14.090463,6.2843 0,-5.4554 -3.45515,0 0,5.4554 -5.455498,0 0,3.4552 5.455498,0 0,5.4555 3.45515,0 0,-5.4555 5.4555,0 0,-3.4552 -5.4555,0 z"
       style="fill:#ffffff;fill-opacity:1"
       inkscape:connector-curvature="0" />
  </g>
</svg>
