<svg viewBox="0 0 500 500" xmlns="http://www.w3.org/2000/svg"><circle cx="250" cy="250" r="250" fill="#F4F1F0"/><g fill="#675F58"><path d="M214.404 187.37c49.376 0 89.404-11.453 89.404-25.545 0-14.092-40.028-25.542-89.404-25.542S125 147.733 125 161.823c0 14.094 40.028 25.547 89.404 25.547z"/><path d="M125 182.28v30.632c0 14.093 40.028 25.543 89.404 25.543 7.645 0 15.023-.307 22.103-.82 1.855-1.27 4.004-2.112 6.326-2.402.27-4.14 2.317-8.065 5.85-10.607l6.933-5.366c2.512-2.062 5.675-3.19 8.98-3.19 1.226 0 2.44.16 3.618.456 1.8-3.532 4.975-6.244 8.93-7.286l8.464-2.534c1.39-.45 2.827-.678 4.297-.678 2.827 0 5.588.85 7.997 2.45.325.21.64.434.94.667.602-.545 1.252-1.047 1.952-1.497.966-.61 1.985-1.003 3.017-1.37V182.28c-25.536 17.162-81.368 17.86-89.403 17.86s-63.875-.7-89.407-17.86zM214.404 289.54c1.308 0 2.577-.038 3.868-.055-.83-2.268-1.14-4.726-.694-7.204l1.357-8.794c.59-4.606 3.45-8.523 7.405-10.7-1.502-3.823-1.253-8.153.728-11.89-6.17.282-10.77.33-12.663.33-8.035 0-63.873-.7-89.404-17.86v30.63c0 14.097 40.028 25.544 89.404 25.544zM229.27 325.662c-4.025-1.79-7.096-5.34-8.116-9.744l-2.224-8.404c-.526-1.74-.608-3.51-.46-5.246-1.775.033-3.234.044-4.064.044-8.035 0-63.873-.694-89.404-17.86v30.63c0 14.097 40.028 25.544 89.404 25.544 6.624 0 13.064-.217 19.276-.607l-1.763-2.41c-2.72-3.458-3.583-7.852-2.65-11.948z"/></g><path d="M372.797 292.8l-13.227-3.51c0-.054 0-.098-.01-.146-.045-1.61-.126-3.206-.332-4.785l2.078-.842 10.607-4.33c1.443-.585 2.23-2.115 1.785-3.396l-2.403-8.984c-.26-1.356-1.72-2.278-3.234-2.056l-2.657.363-11.186 1.552c-.624-1.378-1.346-2.74-2.09-4.048l9.994-9.306c1.097-1.044 1.298-2.737.43-3.787l-1.275-1.763-4.183-5.778c-.542-.898-1.633-1.297-2.724-1.126-.347.054-.678.155-1.01.33l-12.906 7.08c-.917-.83-1.87-1.626-2.848-2.37l6.114-12.64c.667-1.397.233-3.053-.966-3.712l-7.802-5.07c-.862-.67-2.1-.586-3.082.065-.244.166-.488.34-.694.58l-5.843 6.953-4.084 4.842c-.044.033-.065.065-.093.136-.293-.103-.548-.207-.862-.274l.316-15.38c.022-1.545-1.064-2.88-2.41-2.953l-5.13-.746-3.468-.507-.624-.09c-.646-.156-1.297.004-1.855.356-.61.392-1.113 1.016-1.303 1.8l-2.47 8.91-1.616 5.868c-.91.027-1.85.06-2.755.13-.065-.17-.125-.34-.163-.51l-2.896-6.59-.12-.275-1.166-2.672-2.013-4.59c-.26-.582-.694-1.01-1.172-1.33-.694-.457-1.524-.647-2.3-.365l-8.91 2.66c-1.322.286-2.196 1.762-1.963 3.286l1.096 6.636 1.346 8.127c-.966.418-1.894.847-2.85 1.313-.07-.07-.13-.16-.216-.244l-6.863-6.896-4.03-4.05c-1.053-1.085-2.778-1.24-3.798-.325l-7.357 5.697c-.575.372-.933.985-1.052 1.67-.125.68 0 1.43.385 2.085l5.745 9.746 1.948 3.304c-.857.843-1.67 1.745-2.463 2.642-.044 0-.082-.032-.12-.032l-9.83-4.454-4.243-1.92c-1.372-.64-3.038-.167-3.65 1.06l-1.108 1.8-3.754 6.12c-.792 1.122-.488 2.793.732 3.77l7.042 5.626 5.013 4.01c.044.016.07.054.082.054-.45 1.172-.895 2.354-1.264 3.592-.054-.01-.092-.044-.14-.044l-15.415-.434c-1.524-.033-2.875 1.053-2.995 2.42l-1.42 9.2c-.283 1.33.655 2.746 2.153 3.185l4.666 1.33 10.167 2.874c.053 0 .123 0 .172.013 0 1.106.06 2.197.13 3.266-.07.01-.157.042-.206.075l-14.29 5.794c-.537.222-.94.585-1.264.997-.553.706-.797 1.59-.494 2.398l2.387 8.995c.244 1.335 1.704 2.268 3.24 2.05l15.12-2.07c.462 1.116 1.01 2.2 1.54 3.254l-1.116 1.064-9.73 9.2c-1.11 1.054-1.28 2.78-.395 3.8l5.49 7.497c.23.358.576.618.96.803.815.418 1.867.45 2.8-.065l.63-.347 12.488-6.923c.797.824 1.686 1.61 2.582 2.398l-1.015 2.27-1.34 2.993-3.597 8.02c-.613 1.42-.13 3.05 1.096 3.656l7.93 4.84c1.107.785 2.795.454 3.777-.74l9.055-11.49c1.253.51 2.48.955 3.766 1.356l-.277 14.627c-.026 1.54 1.048 2.88 2.427 2.962l7.85 1.13 1.357.194c1.335.303 2.75-.68 3.158-2.16l2.57-9.348 1.313-4.797c.706 0 1.433-.01 2.122-.07l3.282 8.144 1.084 2.717.933 2.322c.603 1.426 2.11 2.234 3.38 1.784l9.028-2.376c.52-.093.955-.397 1.308-.787.548-.617.884-1.485.76-2.435l-.76-5.768-.7-5.067-.347-2.637c.342-.13.71-.314 1.047-.455.928-.396 1.84-.793 2.794-1.248l.336.336 9.343 9.58c1.107 1.08 2.827 1.228 3.847.332l7.38-5.626c1.154-.75 1.458-2.436.677-3.765L343 330.78c1.067-1.074 2.126-2.235 3.118-3.385l12.436 5.626c1.416.636 3.043.17 3.7-1.068l4.855-7.953c.785-1.075.46-2.774-.712-3.723l-10.83-8.638c.544-1.362 1.064-2.746 1.493-4.167l13.7.15c1.562.012 2.848-1.105 2.94-2.445l1.247-9.23c.297-1.325-.67-2.74-2.15-3.147zm-59.733-41.99l.21-1.455c4.347 1.085 8.394 2.818 12.057 5.083 2.1 1.297 4.022 2.832 5.844 4.455 3.44 3.076 6.43 6.635 8.702 10.628l-14.545 5.795-1.442.575c-1.34-1.883-2.93-3.56-4.726-5.013-1.845-1.476-3.885-2.724-6.098-3.684-.732-.32-1.45-.684-2.22-.94l2.22-15.444zm-3.466 31.07c1.514 1.14 2.696 2.663 3.467 4.383.83 1.845 1.16 3.906.852 6.044-.136 1.02-.46 1.953-.852 2.843-.77 1.785-1.953 3.32-3.467 4.454-1.645 1.243-3.65 2.002-5.79 2.165-.818.064-1.648.064-2.49-.055-5.598-.814-9.56-5.648-9.482-11.145.005-.482-.006-.954.06-1.448.896-6.082 6.537-10.303 12.598-9.424 1.94.282 3.65 1.085 5.104 2.18zm-5.79-27.667l-1.572 10.82c-3.853.093-7.492 1.118-10.79 2.778-1.618.82-3.186 1.748-4.602 2.893l-13.553-10.66c5.08-4.884 11.302-8.475 18.154-10.393 3.938-1.11 8.11-1.603 12.364-1.516.3.005.586-.046.89-.035l-.89 6.113zM262.75 305.1c-.755-2.104-1.286-4.308-1.698-6.532-.77-4.112-.95-8.382-.445-12.738.05-.412.038-.814.104-1.237.717-5.057 2.322-9.744 4.6-13.986.734-1.357 1.526-2.68 2.383-3.94l13.356 10.51c-.874 1.4-1.6 2.908-2.187 4.492-.646 1.697-1.13 3.487-1.405 5.364-.4 2.772-.282 5.49.19 8.09.222 1.253.504 2.484.9 3.673l-6.12 2.44-9.678 3.863zm29.785 26.98c-2.025-.505-3.95-1.215-5.816-2.03-1.525-.655-3.018-1.37-4.444-2.175-4.807-2.7-9.082-6.174-12.483-10.395-1.178-1.448-2.29-2.95-3.256-4.535l7.324-2.93 8.8-3.505c2.334 2.973 5.318 5.458 8.785 7.183 1.128.564 2.316 1.053 3.543 1.438l-1.736 11.986-.717 4.964zm32.796-5.127c-4.752 2.95-10.09 4.986-15.732 5.88-.217.034-.45.045-.668.07-2.126.31-4.302.43-6.5.414-.428-.006-.86.026-1.3.005l2.33-16.097c.077-.282.147-.57.202-.852 1.6-.033 3.13-.288 4.655-.63.43-.098.862-.168 1.28-.282 1.2-.324 2.344-.77 3.467-1.246 1.616-.684 3.185-1.48 4.628-2.49l7.64 6.017 6.01 4.742c-1.87 1.677-3.9 3.16-6.01 4.47zm19.76-30.12c-1.025 7.214-3.824 13.735-7.9 19.248l-11.858-9.374-1.443-1.134c.553-.81.954-1.753 1.442-2.632 1.427-2.626 2.577-5.43 3.027-8.55.53-3.674.237-7.28-.712-10.645l15.788-6.294c1.985 6.025 2.652 12.632 1.654 19.382z" fill="#FF931E"/></svg>