<svg viewBox="0 0 500 500" xmlns="http://www.w3.org/2000/svg"><circle cx="250" cy="250" r="250" fill="#F4F1F0"/><path d="M344.342 270.4H280.04c-.02-1.054-.076-2.096-.195-3.12-.065-.56-.163-1.124-.26-1.666 0-.01-.256-1.248-.386-1.855-.147-.566-.3-1.13-.45-1.683-.988-3.392-2.578-6.532-4.574-9.337l20.14-3.505c.742 0 1.328-.797 1.328-1.774 0-.976-.586-1.767-1.33-1.767h-27.147c-3.727-2.713-8.084-4.607-12.814-5.43l-2.377-32.46c0-1.39-.89-2.52-1.975-2.52-1.095 0-1.974 1.13-1.974 2.52l-2.36 32.182c-5.518.59-10.585 2.61-14.85 5.708h-25.13c-.736 0-1.328.792-1.328 1.768 0 .978.592 1.775 1.33 1.775l18.37 3.2c-2.127 2.882-3.782 6.127-4.823 9.653-.146.542-.298 1.106-.44 1.676-.135.608-.276 1.216-.384 1.84 0 0-.194 1.117-.265 1.682-.12 1.025-.174 2.067-.185 3.114h-62.294c-1.6 0-2.892 1.726-2.892 3.84 0 2.128 1.29 3.848 2.892 3.848l25.14 4.39v3.526c-5.452 1.26-9.52 6.114-9.52 11.946 0 6.787 5.496 12.294 12.29 12.294 6.786 0 12.293-5.507 12.293-12.294 0-5.887-4.168-10.79-9.686-11.99v-2.555l38.487 6.71c5.486 6.913 13.825 11.432 23.238 11.752v6.717h-1.514v-2.88c0-.978-.835-1.775-1.833-1.775h-5.967c-1.02 0-1.845.797-1.845 1.773v7.948c0 .972.824 1.77 1.845 1.77h5.968c1 0 1.834-.798 1.834-1.77v-2.88h5.198v2.88c0 .972.835 1.77 1.845 1.77h5.973c1.015 0 1.845-.798 1.845-1.77v-7.947c0-.977-.83-1.774-1.845-1.774h-5.973c-1.01 0-1.845.797-1.845 1.773v2.88h-1.503v-6.716c9.232-.314 17.42-4.66 22.89-11.34l40.83-7.122v2.555c-5.518 1.2-9.668 6.103-9.668 11.99 0 6.787 5.507 12.294 12.288 12.294 6.787 0 12.294-5.507 12.294-12.294 0-5.832-4.07-10.688-9.52-11.946v-3.526l25.14-4.39c1.59 0 2.887-1.72 2.887-3.847-.003-2.115-1.3-3.84-2.888-3.84zm-151.73 27.55c0 4.99-4.06 9.043-9.04 9.043-4.99 0-9.038-4.053-9.038-9.044 0-4.992 4.048-9.04 9.04-9.04 4.98 0 9.037 4.048 9.037 9.04zm29.084-38.19s.91-2.642 2.582-5.306c1.997-3.19 3.88-4.61 3.88-4.61h5.115l-4.193 9.916h-7.384zm13.856-9.917h12.354v9.917h-16.4l4.046-9.917zm13.44 38.574c-5.52 0-10.017-3.934-10.017-8.784 0-4.85 4.498-8.794 10.016-8.794 5.53 0 10.016 3.943 10.016 8.793s-4.486 8.784-10.015 8.784zm1.095-28.657v-9.917h12.343l4.058 9.917h-16.4zm18.83 0l-4.21-9.917h5.134s1.867 1.42 3.874 4.61c1.666 2.665 2.577 5.307 2.577 5.307h-7.372zm56.54 38.19c0 4.99-4.038 9.043-9.03 9.043-4.98 0-9.037-4.053-9.037-9.044 0-4.992 4.058-9.04 9.038-9.04 4.99 0 9.028 4.048 9.028 9.04z" fill="#FF931E"/><path d="M362.782 140.07H137.218c-14.404.028-26.096 11.71-26.107 26.12v167.62c.012 14.41 11.703 26.09 26.108 26.112h225.564c14.404-.022 26.096-11.702 26.107-26.112V166.19c-.012-14.41-11.704-26.09-26.108-26.12zm-2.772 16.74c3.277 0 5.94 2.663 5.94 5.935 0 3.27-2.663 5.93-5.94 5.93-3.282 0-5.936-2.658-5.936-5.93s2.653-5.936 5.936-5.936zm-46.653.35h29.19c3.09 0 5.58 2.508 5.58 5.584 0 3.082-2.49 5.583-5.58 5.583h-29.19c-3.093 0-5.583-2.5-5.583-5.583 0-3.076 2.49-5.583 5.583-5.583zm61.295 176.65c-.02 6.484-5.387 11.86-11.87 11.872H137.218c-6.483-.01-11.85-5.388-11.87-11.87V182.93H374.65v150.88z" fill="#675F58"/></svg>