<svg viewBox="0 0 500 500" xmlns="http://www.w3.org/2000/svg"><path d="M250 0C111.93 0 0 111.936 0 250c0 138.075 111.93 250 250 250 138.075 0 250-111.925 250-250C500 111.936 388.075 0 250 0z" fill="#F4F1F0"/><g fill="#675F58"><path d="M225.64 311.838h11.312v11.317H225.64zM214.323 300.52h11.317v11.318h-11.317zM203.01 198.676h11.313v11.317H203.01zM259.592 311.838h11.312v11.317h-11.312zM270.904 300.52h11.322v11.318h-11.322z"/><path d="M248.275 289.203h15.278c-10.406-9.548-16.976-23.21-16.976-38.41 0-10.94 3.39-21.073 9.153-29.483H225.64v-11.317h-11.317v11.317H203.01v33.951H191.7v11.318h-11.324v33.941H191.7v-22.635h11.31v22.634h11.313V289.2h33.952zm-33.952-45.258h11.317v22.635h-11.317v-22.635zM316.168 266.58H304.85v-11.317h-11.316V221.31h-2.084c-13.227 3.3-23.068 15.245-23.068 29.482 0 4.297.9 8.377 2.523 12.1v-18.946h11.322v22.635h-9.386c4.472 7.324 11.937 12.608 20.693 14.14v-2.833h11.317v2.7c4.145-.834 7.975-2.527 11.317-4.87v-9.14zM282.227 300.26v.26h.705c-.24-.075-.472-.172-.705-.26z"/><path d="M382.704 301.877v-133.81c-.022-14.096-11.447-25.51-25.532-25.543h-220.53c-14.088.033-25.51 11.447-25.53 25.542v163.878c.02 14.095 11.442 25.51 25.53 25.532h220.53c11.426-.012 20.985-7.585 24.24-17.937-1.513.39-3.06.65-4.654.65-3.375 0-6.662-.923-9.527-2.637-2 3.537-5.76 5.99-10.058 5.99h-220.53c-6.33 0-11.587-5.264-11.603-11.6V184.428h243.743v105.055l13.92 12.392zM337.392 170.15h-28.537c-3.017 0-5.458-2.43-5.458-5.448s2.44-5.458 5.458-5.458h28.537c3.02 0 5.463 2.44 5.463 5.458s-2.442 5.447-5.463 5.447zm17.068.358c-3.2 0-5.8-2.605-5.8-5.805 0-3.2 2.6-5.805 5.8-5.805 3.212 0 5.805 2.604 5.805 5.805 0 3.2-2.593 5.805-5.805 5.805z"/></g><g fill="#FF931E"><path d="M351.053 282.422c-5.002-4.46-12.663-4.015-17.123.987-4.448 5-4.004 12.662.993 17.11l4.13 3.68 16.698-17.6-4.697-4.178zM384.83 312.5l-2.126-1.898-13.922-12.392-9.896-8.812-16.7 17.59 26.52 23.62c.022.023.05.034.076.056 3.966 3.473 9.55 3.863 13.91 1.41 1.14-.64 2.214-1.432 3.126-2.463 4.46-5 4.015-12.66-.987-17.11zM344.493 250.792c0-25.24-20.46-45.703-45.697-45.703-1.785 0-3.526.13-5.263.325-3.95.455-7.73 1.432-11.307 2.82-1.35.533-2.658 1.12-3.94 1.76-2.62 1.323-5.088 2.875-7.383 4.654-2.556 1.974-4.91 4.198-7.005 6.66-6.727 7.966-10.807 18.24-10.807 29.483 0 16.135 8.39 30.284 21.02 38.41 2.538 1.64 5.256 3.028 8.115 4.136 3.575 1.398 7.356 2.364 11.307 2.82 1.736.195 3.477.325 5.263.325 2.056 0 4.068-.174 6.055-.445 3.95-.53 7.758-1.53 11.317-2.983 16.618-6.848 28.326-23.19 28.326-42.265zm-28.325 32.585c-3.473 1.855-7.292 3.146-11.317 3.81-1.975.324-3.987.54-6.054.54-1.79 0-3.538-.172-5.263-.422-17.898-2.56-31.674-17.903-31.674-36.513 0-14.432 8.295-26.9 20.366-32.975 4.98-2.506 10.602-3.95 16.57-3.95 20.393 0 36.924 16.525 36.924 36.925 0 14.106-7.915 26.367-19.552 32.585z"/></g></svg>