<?xml version="1.0" encoding="UTF-8" standalone="no"?><!--Created with Inkscape (http://www.inkscape.org/)--><svg xmlns:dc="http://purl.org/dc/elements/1.1/" xmlns:cc="http://creativecommons.org/ns#" xmlns:rdf="http://www.w3.org/1999/02/22-rdf-syntax-ns#" xmlns:svg="http://www.w3.org/2000/svg" xmlns="http://www.w3.org/2000/svg" xmlns:sodipodi="http://sodipodi.sourceforge.net/DTD/sodipodi-0.dtd" xmlns:inkscape="http://www.inkscape.org/namespaces/inkscape" width="50" height="50" viewBox="0 0 50.000001 50.000001" id="svg4135" version="1.1" inkscape:version="0.91 r13725" sodipodi:docname="linkedin.svg"><defs id="defs4137"/><sodipodi:namedview id="base" pagecolor="#ffffff" bordercolor="#666666" borderopacity="1.0" inkscape:pageopacity="0.0" inkscape:pageshadow="2" inkscape:zoom="3.959798" inkscape:cx="13.635322" inkscape:cy="40.926398" inkscape:document-units="px" inkscape:current-layer="layer1" showgrid="false" units="px" inkscape:window-width="1366" inkscape:window-height="706" inkscape:window-x="-8" inkscape:window-y="-8" inkscape:window-maximized="1"/><metadata id="metadata4140"><rdf:RDF><cc:Work rdf:about=""><dc:format>image/svg+xml</dc:format><dc:type rdf:resource="http://purl.org/dc/dcmitype/StillImage"/><dc:title/></cc:Work></rdf:RDF></metadata><g inkscape:label="Layer 1" inkscape:groupmode="layer" id="layer1" transform="translate(0,-1002.3622)"><rect style="opacity:1;fill:#4ac1cc;fill-opacity:1;stroke:none;stroke-width:3;stroke-linecap:butt;stroke-linejoin:round;stroke-miterlimit:4;stroke-dasharray:none;stroke-dashoffset:0;stroke-opacity:1" id="rect4683" width="50" height="50" x="0" y="1002.3622" ry="8"/><g id="g4789" transform="translate(462.52754,550.61394)"><g id="g4749"/><g id="g4753"/><g id="g4755"/><g id="g4757"/><g id="g4759"/><g id="g4761"/><g id="g4763"/><g id="g4765"/><g id="g4767"/><g id="g4769"/><g id="g4771"/><g id="g4773"/><g id="g4775"/><g id="g4777"/><g id="g4779"/><g id="g4781"/></g><g id="g4849" transform="translate(-711.3583,1268.1561)"><g id="g4809"/><g id="g4813"/><g id="g4815"/><g id="g4817"/><g id="g4819"/><g id="g4821"/><g id="g4823"/><g id="g4825"/><g id="g4827"/><g id="g4829"/><g id="g4831"/><g id="g4833"/><g id="g4835"/><g id="g4837"/><g id="g4839"/><g id="g4841"/></g><g id="g4908" transform="translate(-761.6123,429.33072)"><g id="g4869"/><g id="g4872"/><g id="g4874"/><g id="g4876"/><g id="g4878"/><g id="g4880"/><g id="g4882"/><g id="g4884"/><g id="g4886"/><g id="g4888"/><g id="g4890"/><g id="g4892"/><g id="g4894"/><g id="g4896"/><g id="g4898"/><g id="g4900"/></g><path d="m 43.397627,1031.0784 0,12.6688 -7.344597,0 0,-11.8204 c 0,-2.9693 -1.062322,-4.9957 -3.720816,-4.9957 -2.029426,0 -3.237142,1.3656 -3.768463,2.6867 -0.193753,0.4722 -0.243626,1.1296 -0.243626,1.7907 l 0,12.3387 -7.347062,0 c 0,0 0.09895,-20.0198 0,-22.094 l 7.346341,0 0,3.1317 c -0.01491,0.024 -0.03423,0.048 -0.04832,0.071 l 0.04832,0 0,-0.071 c 0.976038,-1.5032 2.719129,-3.6507 6.620718,-3.6507 4.833798,-10e-5 8.457505,3.1577 8.457505,9.9442 z m -30.109906,-20.0756 c -2.51342,0 -4.1574095,1.6486 -4.1574095,3.8166 0,2.1207 1.5964255,3.8194 4.0598905,3.8194 l 0.04905,0 c 2.562097,0 4.155494,-1.6983 4.155494,-3.8194 -0.04824,-2.168 -1.593397,-3.8166 -4.107053,-3.8166 z m -3.7210535,32.7444 7.3442685,0 0,-22.094 -7.3442685,0 0,22.094 z" id="LinkedIn" inkscape:connector-curvature="0" style="fill:#ffffff;fill-opacity:1"/></g></svg>